<?xml version="1.0" encoding="utf-8"?>
<!-- Generator: Adobe Illustrator 16.0.0, SVG Export Plug-In . SVG Version: 6.00 Build 0)  -->
<!DOCTYPE svg PUBLIC "-//W3C//DTD SVG 1.1//EN" "http://www.w3.org/Graphics/SVG/1.1/DTD/svg11.dtd">
<svg version="1.1"
	 id="Layer_1" xmlns:corel-charset="http://product.corel.com/CGS/11/cddns/" xmlns:odm="http://product.corel.com/CGS/11/cddns/"
	 xmlns="http://www.w3.org/2000/svg" xmlns:xlink="http://www.w3.org/1999/xlink" x="0px" y="0px" width="11.083px"
	 height="12.833px" viewBox="0 0 11.083 12.833" enable-background="new 0 0 11.083 12.833" xml:space="preserve">
<g id="Symbol">
	<path class="ceva" fill="#77C06C" d="M0.656,6.894C1.55,7.385,2.281,7.778,3.187,8.275c0.062,0.033,0.125,0.043,0.189-0.027
		c2.168-2.563,4.29-5.08,6.46-7.645c0.284-0.325,0.831-0.125,0.655,0.174c-3.844,5.601-5.863,8.88-7.089,11.468
		c-0.11,0.235-0.32,0.221-0.438-0.005c-0.27-0.541-0.677-1.393-0.688-1.413C1.408,8.914,1.381,8.831,0.55,7.001
		C0.514,6.914,0.597,6.848,0.656,6.894L0.656,6.894z"/>
</g>
</svg>
